<?xml version="1.0" encoding="utf-8"?>
<!-- Generator: Adobe Illustrator 16.0.0, SVG Export Plug-In . SVG Version: 6.00 Build 0)  -->
<!DOCTYPE svg PUBLIC "-//W3C//DTD SVG 1.1//EN" "http://www.w3.org/Graphics/SVG/1.1/DTD/svg11.dtd">
<svg version="1.1" id="圖層_1" xmlns="http://www.w3.org/2000/svg" xmlns:xlink="http://www.w3.org/1999/xlink" x="0px" y="0px"
	 width="139.997px" height="172.747px" viewBox="121.114 149.395 139.997 172.747"
	 enable-background="new 121.114 149.395 139.997 172.747" xml:space="preserve">
<g>
	<g>
		<rect x="123.051" y="149.394" fill="#E60012" width="28.64" height="4.008"/>
		<rect x="155.918" y="157.9" fill="#E60012" width="28.64" height="4.009"/>
		<polygon fill="#E60012" points="123.051,157.9 123.051,161.909 135.127,161.909 129.137,176.978 144.104,176.978 151.69,157.9 		
			"/>
		<rect x="222.879" y="149.394" fill="#E60012" width="13.308" height="4.008"/>
		<polygon fill="#E60012" points="241.515,176.978 226.545,176.978 244.21,149.394 259.174,149.394 		"/>
		<polygon fill="#E60012" points="200.7,176.978 185.734,176.978 203.398,149.394 218.364,149.394 		"/>
		<polygon fill="#E60012" points="217.09,170.359 188.451,161.909 188.451,157.901 217.09,166.349 		"/>
	</g>
	<g>
		<path fill="#E60012" d="M191.11,181.833c-38.596,0-69.998,31.471-69.998,70.159c0,18.223,6.973,34.848,18.391,47.336
			l-8.663,17.804l13.637-12.868c12.389,11.106,28.742,17.878,46.632,17.878c38.601,0,70.001-31.467,70.001-70.149
			C261.113,213.303,229.711,181.833,191.11,181.833 M128.928,251.992c0-19.473,8.964-36.888,22.968-48.327v70.172l-8.68,17.852
			C134.3,280.898,128.928,267.062,128.928,251.992 M191.11,314.312c-15.654,0-29.981-5.829-40.916-15.441l17.07-16.107v-51.229
			h21.026v31.615h-2.911v-22.236h-12.29v22.236h-2.91v19.613l42.34-19.613h-11.944v-9.923h11.944v9.923v19.674h15.372h11.24
			l7.424-42.756l-18.664,23.449v-31.982v-12.315H212.52h-45.255l-14.677-16.111c10.596-8.412,23.991-13.438,38.522-13.438
			c34.286,0,62.182,27.96,62.182,62.322C253.292,286.357,225.397,314.312,191.11,314.312 M212.52,240.914h-11.944v-9.379h11.944
			V240.914z"/>
		<path fill="#E60012" d="M181.839,294.44c-0.259,0-0.531,0.034-0.799,0.104c-0.271,0.061-0.531,0.168-0.781,0.319l-0.872,0.505
			v-0.725l-2.073,0.143v7.314h2.073v-4.926c0.151-0.144,0.358-0.281,0.6-0.437c0.255-0.16,0.575-0.242,0.946-0.242
			c0.384,0,0.683,0.1,0.868,0.311c0.19,0.203,0.285,0.441,0.285,0.709v4.586h2.077v-5.233c0-0.722-0.208-1.313-0.618-1.762
			C183.126,294.665,182.564,294.44,181.839,294.44"/>
		<path fill="#E60012" d="M192.566,300.425c-0.143-0.25-0.221-0.569-0.221-0.976v-4.663l-0.389-0.121l-1.188,0.432
			c-0.121-0.129-0.345-0.281-0.708-0.44c-0.35-0.163-0.735-0.241-1.141-0.241c-1.036,0-1.882,0.362-2.543,1.105
			c-0.665,0.742-0.997,1.688-0.997,2.828c0,1.196,0.319,2.13,0.958,2.812c0.63,0.674,1.442,1.02,2.422,1.02
			c0.083,0,0.182-0.026,0.298-0.057c0.129-0.021,0.212-0.056,0.254-0.082l1.274-0.726c0.061,0.229,0.181,0.424,0.376,0.604
			c0.181,0.182,0.397,0.303,0.66,0.389l1.61-1.338C192.933,300.841,192.712,300.654,192.566,300.425 M190.376,299.959
			c-0.082,0.068-0.25,0.146-0.505,0.233c-0.254,0.095-0.527,0.138-0.812,0.138c-0.514,0-0.908-0.186-1.175-0.553
			c-0.285-0.371-0.423-0.868-0.423-1.473c0-0.769,0.151-1.325,0.449-1.654c0.298-0.341,0.669-0.501,1.136-0.501
			c0.315,0,0.583,0.057,0.799,0.187c0.216,0.116,0.397,0.259,0.531,0.436L190.376,299.959L190.376,299.959z"/>
		<rect x="202.498" y="291.944" fill="#E60012" width="2.111" height="1.943"/>
		<polygon fill="#E60012" points="202.498,302.1 204.609,302.1 204.609,294.665 202.498,294.785 		"/>
		<path fill="#E60012" d="M199.242,295.096c-0.289-0.242-0.596-0.415-0.934-0.519c-0.341-0.112-0.673-0.164-0.997-0.164
			c-0.988,0-1.817,0.354-2.475,1.063c-0.647,0.721-0.972,1.624-0.972,2.721c0,1.179,0.273,2.115,0.834,2.807
			c0.562,0.691,1.352,1.036,2.371,1.036c0.15,0,0.324-0.018,0.505-0.06c0.182-0.035,0.337-0.092,0.475-0.19l0.722-0.484v0.514
			c0,0.479-0.177,0.816-0.54,1.024c-0.354,0.194-1.049,0.297-2.082,0.297v1.175h1.806c0.312-0.072,0.64-0.177,0.971-0.35
			c0.342-0.155,0.646-0.371,0.929-0.621c0.286-0.26,0.519-0.574,0.679-0.929c0.177-0.362,0.276-0.773,0.276-1.24v-6.39l-0.423-0.135
			L199.242,295.096z M198.832,299.699c-0.121,0.183-0.294,0.328-0.514,0.428c-0.229,0.107-0.488,0.16-0.743,0.16
			c-0.548,0-0.94-0.207-1.209-0.64c-0.268-0.419-0.397-0.958-0.397-1.624c0-0.487,0.121-0.923,0.376-1.304
			c0.26-0.38,0.683-0.57,1.287-0.57c0.319,0,0.565,0.057,0.746,0.16c0.187,0.116,0.337,0.268,0.454,0.462V299.699z"/>
	</g>
</g>
</svg>
